<?xml version="1.0" encoding="UTF-8" standalone="no"?>
<!DOCTYPE svg PUBLIC "-//W3C//DTD SVG 20010904//EN" "http://www.w3.org/TR/2001/REC-SVG-20010904/DTD/svg10.dtd">
<svg version="1.0" xmlns="http://www.w3.org/2000/svg" width="300.000000pt" height="141.000000pt" viewBox="0 0 300.000000 141.000000" preserveAspectRatio="xMidYMid meet">
<metadata>
Created by potrace 1.10, written by Peter Selinger 2001-2011
</metadata>
<g transform="translate(0.000000,141.000000) scale(0.100000,-0.100000)" fill="#000000" stroke="none">
<path d="M690 1085 c-10 -12 -10 -18 0 -30 12 -14 15 -14 31 1 14 13 16 20 8 31 -15 17 -24 17 -39 -2z"/>
<path d="M501 1037 c-8 -11 -6 -18 8 -31 16 -15 19 -15 31 -1 10 12 10 18 0 30 -15 19 -24 19 -39 2z"/>
<path d="M871 1037 c-8 -11 -6 -18 8 -31 16 -15 19 -15 31 -1 10 12 10 18 0 30 -15 19 -24 19 -39 2z"/>
<path d="M602 1017 l-22 -23 25 -24 c24 -23 25 -23 45 -5 25 22 25 37 2 58 -24 22 -24 21 -50 -6z"/>
<path d="M767 1012 c-16 -18 -16 -20 1 -35 18 -16 20 -16 35 1 16 18 16 20 -1 35 -18 16 -20 16 -35 -1z"/>
<path d="M477 932 c-13 -14 -14 -21 -5 -30 16 -16 33 -15 47 1 8 11 7 18 -7 31 -18 15 -20 15 -35 -2z"/>
<path d="M690 935 c-10 -12 -10 -18 0 -30 12 -14 15 -14 31 1 14 13 16 20 8 31 -15 17 -24 17 -39 -2z"/>
<path d="M900 934 c-11 -12 -10 -18 3 -32 16 -15 18 -15 34 0 13 14 14 20 3 32 -7 9 -16 16 -20 16 -4 0 -13 -7 -20 -16z"/>
<path d="M370 904 c-11 -12 -10 -18 3 -32 16 -15 18 -15 34 0 13 14 14 20 3 32 -7 9 -16 16 -20 16 -4 0 -13 -7 -20 -16z"/>
<path d="M1010 906 c-10 -13 -10 -19 0 -32 12 -14 15 -14 29 0 14 15 14 17 0 32 -14 14 -17 14 -29 0z"/>
<path d="M537 872 c-16 -17 -16 -20 -2 -32 13 -11 19 -11 33 3 15 15 15 19 1 32 -14 14 -17 14 -32 -3z"/>
<path d="M840 874 c-11 -12 -10 -18 3 -32 16 -15 18 -15 34 0 13 14 14 20 3 32 -7 9 -16 16 -20 16 -4 0 -13 -7 -20 -16z"/>
<path d="M1280 705 l0 -155 30 0 30 0 0 155 0 155 -30 0 -30 0 0 -155z"/>
<path d="M1478 711 c48 -83 89 -151 92 -151 3 0 23 33 45 72 22 39 61 106 87 150 l46 78 -36 0 c-36 0 -38 -3 -87 -90 -27 -49 -52 -90 -55 -90 -3 0 -28 40 -55 88 -48 82 -52 87 -87 90 l-37 3 87 -150z"/>
<path d="M1804 793 c-20 -37 -61 -107 -90 -155 l-52 -88 36 0 c37 0 38 2 87 90 28 49 52 89 55 90 3 0 27 -39 54 -86 52 -91 59 -97 99 -92 l25 3 -50 85 c-28 47 -68 116 -88 153 l-37 68 -39 -68z"/>
<path d="M2070 705 l0 -158 86 6 c95 5 122 18 162 77 28 42 29 100 1 150 -31 55 -70 73 -166 78 l-83 5 0 -158z m183 55 c34 -38 34 -70 1 -109 -22 -27 -32 -31 -75 -31 l-49 0 0 83 c0 46 3 87 8 91 16 17 87 -4 115 -34z"/>
<path d="M2494 849 c-42 -12 -91 -69 -100 -115 -9 -51 11 -107 51 -143 35 -30 59 -37 120 -32 73 6 125 68 125 147 0 64 -28 110 -83 134 -46 21 -66 23 -113 9z m120 -94 c39 -60 -2 -135 -74 -135 -74 0 -112 89 -61 144 39 42 105 37 135 -9z"/>
<path d="M972 807 l-22 -23 25 -24 25 -24 22 22 22 22 -25 25 -25 26 -22 -24z"/>
<path d="M400 795 c-10 -12 -10 -18 0 -30 12 -14 15 -14 31 1 14 13 16 20 8 31 -15 17 -24 17 -39 -2z"/>
<path d="M1057 722 c-16 -18 -16 -20 1 -35 18 -16 20 -16 35 1 16 18 16 20 -1 35 -18 16 -20 16 -35 -1z"/>
<path d="M321 716 c-17 -20 13 -43 34 -26 12 10 13 16 4 26 -6 8 -15 14 -19 14 -4 0 -13 -6 -19 -14z"/>
<path d="M471 716 c-9 -10 -8 -16 4 -26 21 -17 51 6 34 26 -6 8 -15 14 -19 14 -4 0 -13 -6 -19 -14z"/>
<path d="M902 718 c-9 -9 -8 -16 5 -30 15 -17 17 -17 35 -2 14 13 15 20 7 31 -14 16 -31 17 -47 1z"/>
<path d="M392 647 l-22 -23 23 -22 23 -22 24 25 c23 24 23 25 5 45 -23 25 -27 25 -53 -3z"/>
<path d="M980 645 c-11 -13 -11 -19 3 -33 15 -15 19 -15 32 -1 14 14 14 17 -3 32 -17 16 -20 16 -32 2z"/>
<path d="M531 567 c-8 -11 -6 -18 8 -31 16 -15 19 -15 31 -1 10 12 10 18 0 30 -15 19 -24 19 -39 2z"/>
<path d="M840 564 c-11 -12 -10 -18 3 -32 16 -15 18 -15 34 0 13 14 14 20 3 32 -7 9 -16 16 -20 16 -4 0 -13 -7 -20 -16z"/>
<path d="M370 534 c-11 -12 -10 -18 3 -32 16 -15 18 -15 34 0 13 14 14 20 3 32 -7 9 -16 16 -20 16 -4 0 -13 -7 -20 -16z"/>
<path d="M1010 536 c-10 -13 -10 -19 0 -32 12 -14 15 -14 29 0 14 15 14 17 0 32 -14 14 -17 14 -29 0z"/>
<path d="M472 508 c-9 -9 -8 -16 5 -30 15 -17 17 -17 35 -2 17 16 17 18 0 30 -21 17 -25 17 -40 2z"/>
<path d="M690 505 c-11 -13 -11 -19 3 -33 15 -15 19 -15 32 -1 14 14 14 17 -3 32 -17 16 -20 16 -32 2z"/>
<path d="M900 504 c-11 -12 -10 -18 3 -32 16 -15 18 -15 34 0 13 14 14 20 3 32 -7 9 -16 16 -20 16 -4 0 -13 -7 -20 -16z"/>
<path d="M762 437 l-22 -23 23 -22 23 -22 22 23 22 23 -23 22 -23 22 -22 -23z"/>
<path d="M612 427 c-7 -8 -7 -17 2 -29 12 -17 14 -17 29 0 13 14 14 21 5 30 -15 15 -23 15 -36 -1z"/>
<path d="M507 402 c-16 -17 -16 -20 -2 -32 13 -11 19 -11 33 3 15 15 15 19 1 32 -14 14 -17 14 -32 -3z"/>
<path d="M877 402 c-16 -17 -16 -20 -2 -32 13 -11 19 -11 33 3 15 15 15 19 1 32 -14 14 -17 14 -32 -3z"/>
<path d="M690 355 c-11 -13 -11 -19 3 -33 15 -15 19 -15 32 -1 14 14 14 17 -3 32 -17 16 -20 16 -32 2z"/>
</g>
</svg>