<?xml version="1.0" encoding="UTF-8" standalone="no"?>
<!DOCTYPE svg PUBLIC "-//W3C//DTD SVG 20010904//EN" "http://www.w3.org/TR/2001/REC-SVG-20010904/DTD/svg10.dtd">
<svg version="1.0" xmlns="http://www.w3.org/2000/svg" width="300.000000pt" height="150.000000pt" viewBox="0 0 300.000000 150.000000" preserveAspectRatio="xMidYMid meet">
<metadata>
Created by potrace 1.10, written by Peter Selinger 2001-2011
</metadata>
<g transform="translate(0.000000,150.000000) scale(0.100000,-0.100000)" fill="#000000" stroke="none">
<path d="M0 1215 c0 -13 50 -15 388 -15 213 0 397 -3 410 -6 l22 -6 -2 -392 -3 -391 -407 -3 c-354 -2 -408 -4 -408 -17 0 -13 56 -15 430 -15 l430 0 0 430 0 430 -430 0 c-376 0 -430 -2 -430 -15z"/>
<path d="M1175 1166 c-106 -46 -163 -163 -131 -269 39 -129 166 -194 300 -155 82 25 156 127 156 214 0 83 -58 170 -135 205 -47 22 -146 24 -190 5z m65 -34 c0 -4 -19 -15 -42 -23 -56 -20 -96 -77 -104 -144 -5 -44 -2 -56 25 -97 16 -26 47 -56 68 -68 25 -14 30 -18 13 -14 -70 18 -120 89 -120 168 0 77 41 140 110 170 40 18 50 19 50 8z m117 -17 c28 -14 58 -36 66 -49 19 -28 38 -96 27 -96 -4 0 -11 12 -15 27 -15 61 -82 120 -154 134 -35 7 -35 7 -5 8 16 0 53 -10 81 -24z m-30 -44 c98 -45 98 -188 0 -234 -62 -30 -115 -18 -167 38 -20 21 -25 37 -25 80 0 60 24 96 80 121 41 18 63 17 112 -5z m127 -148 c-15 -63 -90 -143 -134 -143 -8 0 -1 7 15 16 59 30 105 89 105 134 0 11 5 20 10 20 6 0 8 -11 4 -27z"/>
<path d="M2020 1173 c-28 -10 -70 -56 -81 -90 -25 -76 30 -141 136 -162 93 -18 119 -59 58 -92 -36 -19 -107 -14 -150 11 -19 11 -36 20 -37 18 -2 -2 -12 -17 -24 -35 -12 -17 -22 -33 -22 -36 0 -12 110 -50 159 -54 69 -5 134 24 168 76 27 40 28 59 9 106 -18 42 -63 71 -136 86 -65 13 -80 23 -80 55 0 45 64 57 130 24 22 -11 41 -20 44 -20 2 0 13 16 25 35 l21 36 -53 24 c-50 24 -128 32 -167 18z"/>
<path d="M2733 1160 c-81 -49 -83 -167 -4 -212 14 -9 50 -21 79 -27 69 -14 92 -27 92 -51 0 -51 -103 -69 -177 -32 l-42 22 -20 -29 c-12 -16 -21 -33 -21 -39 0 -5 24 -20 53 -33 136 -60 287 -3 287 108 0 73 -43 112 -145 133 -67 14 -85 24 -85 50 0 48 69 64 135 30 22 -11 42 -20 45 -20 6 0 40 59 40 70 0 15 -110 50 -158 50 -29 0 -59 -8 -79 -20z"/>
<path d="M1550 950 l0 -210 50 0 49 0 3 70 3 71 60 -71 59 -70 60 0 61 0 -78 78 c-42 42 -77 81 -77 85 0 4 7 7 15 7 29 0 75 30 90 60 34 65 9 137 -60 170 -33 16 -62 20 -138 20 l-97 0 0 -210z m87 152 c-9 -9 -20 -29 -26 -42 -9 -23 -10 -21 -10 18 -1 39 1 42 26 42 24 0 25 -1 10 -18z m172 -38 c14 -33 14 -46 -3 -69 -13 -18 -14 -18 -9 7 3 15 -2 41 -11 59 -19 39 -19 40 -2 33 7 -3 18 -16 25 -30z m-66 -2 c28 -25 22 -69 -13 -87 -16 -8 -40 -15 -55 -15 -24 0 -25 2 -25 65 l0 66 38 -7 c20 -4 45 -13 55 -22z m-104 -116 c10 -9 32 -19 47 -20 16 -2 28 -6 27 -10 -2 -3 -3 -12 -3 -20 0 -12 -5 -12 -30 -3 -26 10 -32 9 -45 -8 -8 -11 -19 -33 -23 -50 -8 -28 -9 -27 -15 21 -4 29 -4 78 0 110 6 54 7 57 15 28 4 -17 16 -38 27 -48z"/>
<path d="M2290 1155 c0 -3 32 -52 71 -109 l70 -104 -71 -102 c-40 -56 -70 -103 -68 -105 2 -2 25 -1 52 2 46 6 50 9 84 62 20 31 79 121 131 201 53 80 97 148 99 153 2 4 -19 7 -46 7 l-50 0 -45 -70 -45 -70 -43 70 -44 70 -47 0 c-27 0 -48 -2 -48 -5z m220 -155 c0 -10 -31 -50 -39 -50 -6 0 -31 43 -31 53 0 1 16 2 35 3 19 0 35 -2 35 -6z"/>
<path d="M564 1129 c-36 -13 -41 -60 -8 -73 8 -3 14 -12 14 -20 0 -7 6 -16 14 -19 16 -7 46 -89 46 -129 0 -111 -135 -202 -222 -151 -41 24 -78 78 -78 114 0 32 40 83 82 105 l29 15 -16 -32 c-20 -39 -13 -73 20 -95 21 -14 30 -14 55 -4 56 23 53 101 -5 126 -48 20 -92 18 -132 -7 -122 -76 -52 -269 98 -269 83 0 141 36 180 112 41 79 10 217 -60 269 -37 27 -39 39 -7 39 37 0 105 -59 140 -120 29 -51 31 -62 31 -150 -1 -84 -4 -101 -28 -148 -34 -65 -93 -123 -155 -154 -39 -19 -63 -23 -142 -23 -84 0 -102 3 -152 28 -65 32 -122 90 -151 156 -28 64 -28 170 0 231 57 125 231 197 341 141 45 -23 87 -71 97 -114 10 -39 25 -44 25 -8 0 68 -47 126 -128 157 -108 42 -282 -21 -342 -123 -99 -167 -33 -378 147 -468 53 -28 67 -30 163 -30 127 0 177 20 255 99 80 82 99 130 100 256 0 95 -3 110 -27 156 -45 85 -136 151 -184 133z m-66 -237 c-2 -9 -11 -18 -21 -20 -19 -4 -32 20 -23 43 8 22 48 0 44 -23z"/>
<path d="M1084 603 c-3 -10 -10 -27 -16 -38 -8 -14 -8 -20 1 -23 6 -2 11 -28 11 -63 0 -42 4 -59 13 -59 10 0 12 15 9 60 -4 50 -2 60 12 60 9 0 16 5 16 10 0 6 -7 10 -15 10 -22 0 -18 31 5 37 28 8 25 23 -5 23 -16 0 -28 -7 -31 -17z"/>
<path d="M2264 598 c-8 -13 -7 -156 2 -169 7 -12 44 -11 44 1 0 6 -4 10 -10 10 -15 0 -12 97 3 104 10 5 10 7 0 12 -7 3 -13 17 -13 30 0 25 -14 32 -26 12z"/>
<path d="M1274 562 c-34 -22 -43 -84 -18 -120 21 -30 77 -30 98 0 43 61 -22 159 -80 120z m61 -66 c0 -46 -23 -68 -49 -47 -16 14 -22 72 -9 85 4 4 19 6 33 4 22 -3 25 -8 25 -42z"/>
<path d="M1500 493 c0 -59 3 -73 15 -73 11 0 14 7 9 25 -11 42 4 95 26 95 11 0 20 6 20 14 0 10 -10 14 -35 13 l-35 -2 0 -72z"/>
<path d="M1690 493 c0 -57 3 -73 15 -73 10 0 15 15 17 58 3 50 6 57 26 60 21 3 22 0 22 -57 0 -46 3 -61 14 -61 11 0 13 9 9 34 -9 54 3 88 30 84 20 -3 22 -9 22 -60 0 -42 3 -58 13 -58 10 0 12 17 10 66 -3 76 -21 99 -59 76 -13 -9 -25 -10 -32 -3 -7 5 -29 9 -49 8 l-38 -1 0 -73z"/>
<path d="M2028 559 c-18 -10 -25 -39 -10 -39 4 0 15 7 25 15 11 7 25 11 33 8 26 -10 14 -31 -22 -40 -45 -10 -64 -35 -48 -60 8 -13 26 -18 65 -19 l54 -1 -5 64 c-6 66 -17 83 -55 83 -11 -1 -28 -5 -37 -11z m60 -91 c-2 -17 -11 -24 -30 -26 -35 -4 -39 24 -5 38 34 14 39 12 35 -12z"/>
<path d="M2439 568 c0 -2 -1 -36 -2 -75 -2 -53 1 -73 10 -73 9 0 13 21 13 75 0 43 -4 75 -10 75 -5 0 -10 -1 -11 -2z"/>
<path d="M2624 562 c-35 -23 -44 -88 -16 -122 38 -47 112 -14 112 50 0 54 -58 98 -96 72z m62 -46 c8 -33 2 -57 -18 -69 -24 -16 -48 8 -48 48 0 38 6 45 36 45 17 0 25 -7 30 -24z"/>
<path d="M2850 496 c0 -56 3 -76 13 -76 9 0 12 11 9 35 -7 56 5 85 33 85 24 0 25 -3 25 -60 0 -47 3 -60 15 -60 22 0 21 112 -1 134 -18 18 -50 21 -59 6 -5 -8 -11 -7 -21 1 -12 10 -14 0 -14 -65z"/>
</g>
</svg>